PathFileType	4	(X/Y/Z)	s06c0303.trc
DataRate	CameraRate	NumFrames	NumMarkers	Units	OrigDataRate	OrigDataStartFrame	OrigNumFrames
200	200	7	48	mm	200	1500	2000
Frame#	Time	racr			lacr			c7			jug			rlel			rdr			llel			ldr			s2			lic			ric			lasi			rasi			rpsi			lpsi			rgt			lgt			rth1			rth2			rth3			rth4			rlfc			rmfc			rsh1			rsh2			rsh3			rsh4			rlmal			rcal			rtoe			rmt5			lth1			lth2			lth4			lth3			llfc			lmfc			llmal			lcal			lmt5			lsh1			lsh2			lsh3			lsh4			ltoe			SBIKE			LBIKE			RBIKE			
		X1	Y1	Z1	X2	Y2	Z2	X3	Y3	Z3	X4	Y4	Z4	X5	Y5	Z5	X6	Y6	Z6	X7	Y7	Z7	X8	Y8	Z8	X9	Y9	Z9	X10	Y10	Z10	X11	Y11	Z11	X12	Y12	Z12	X13	Y13	Z13	X14	Y14	Z14	X15	Y15	Z15	X16	Y16	Z16	X17	Y17	Z17	X18	Y18	Z18	X19	Y19	Z19	X20	Y20	Z20	X21	Y21	Z21	X22	Y22	Z22	X23	Y23	Z23	X24	Y24	Z24	X25	Y25	Z25	X26	Y26	Z26	X27	Y27	Z27	X28	Y28	Z28	X29	Y29	Z29	X30	Y30	Z30	X31	Y31	Z31	X32	Y32	Z32	X33	Y33	Z33	X34	Y34	Z34	X35	Y35	Z35	X36	Y36	Z36	X37	Y37	Z37	X38	Y38	Z38	X39	Y39	Z39	X40	Y40	Z40	X41	Y41	Z41	X42	Y42	Z42	X43	Y43	Z43	X44	Y44	Z44	X45	Y45	Z45	X46	Y46	Z46	X47	Y47	Z47	X48	Y48	Z48	
1500	7.5000	730.047745	1253.983084	-50.334740	754.446720	1226.236781	-363.621618	773.915988	1298.692058	-212.846509	690.232528	1161.223464	-199.100035	551.879492	1070.066602	54.688292	710.351725	928.749968	-44.421035	574.249171	1074.678888	-502.610579	711.257140	918.580123	-419.211418	192.346474	1266.145529	-267.934108	353.219815	1172.093269	-398.037724	300.099062	1190.331649	-74.777837	351.415498	1115.289908	-359.556761	332.461196	1145.158493	-105.458918	226.446301	1283.123671	-226.010128	233.219519	1281.657215	-285.008652	253.650872	1119.939244	-52.386561	314.512685	1119.489663	-432.720805	307.319739	992.626668	-27.066118	355.448473	915.842935	-24.988771	360.650805	828.811185	-33.285099	390.095049	928.806570	-35.522571	378.299269	720.840145	-43.696818	376.690044	695.772086	-152.527088	345.831427	602.200400	-22.396451	347.590734	517.002277	-42.435328	308.278002	439.861399	-49.845563	372.918210	515.671718	-74.368464	281.592924	365.650602	-56.711975	218.098822	350.773622	-105.884275	479.108307	257.603176	-92.255738	378.274336	268.338081	-26.621449	336.379650	1003.848818	-439.817567	389.113432	935.567478	-427.937826	418.608799	949.023083	-410.249033	402.211164	846.900828	-426.655853	400.351255	727.465089	-402.176426	392.689361	714.057535	-287.844255	103.916936	502.491333	-379.806346	54.336864	549.511977	-333.264409	92.903401	352.241051	-396.065112	319.324780	650.906079	-423.302228	266.090408	586.970044	-398.524446	184.544307	551.867595	-395.819691	284.654359	571.041658	-368.056411	132.179352	277.087537	-333.641029	-158.532079	853.275767	-215.652746	-54.083972	80.273475	-407.868049	-54.008498	80.650047	-10.314314	
1501	7.5050	732.533559	1248.708941	-51.420243	754.740152	1225.244017	-365.250550	775.442977	1296.098692	-214.249282	692.123250	1158.275842	-201.984244	552.363448	1067.299724	54.533041	710.550076	928.343902	-44.958797	574.564393	1074.143965	-504.231491	711.620527	918.549020	-419.955437	193.467634	1263.560061	-265.481135	352.881092	1171.832508	-396.926094	302.161135	1185.370380	-72.863434	351.489988	1114.362129	-359.029873	334.181019	1140.462488	-104.303163	227.371518	1280.275176	-223.009329	233.727600	1280.064515	-282.482781	253.748143	1114.292483	-51.858432	315.494782	1119.126363	-431.621791	303.593925	985.331736	-26.947027	350.597891	907.338806	-24.847366	352.585113	820.207809	-34.245008	384.953669	918.884383	-35.915544	368.660860	712.906420	-44.703795	365.916880	687.831709	-153.704830	338.204121	594.512726	-22.876359	341.173244	509.160698	-42.343145	302.915371	431.536106	-49.513983	366.486707	507.997619	-74.307996	278.116860	356.023058	-56.678245	214.782574	341.409142	-105.761806	475.292546	246.547977	-92.286658	374.510879	258.065800	-26.659703	338.827332	1004.505726	-440.521250	393.396578	937.633711	-428.841648	422.141128	951.565852	-410.288655	409.178646	849.433953	-429.530260	408.623492	731.612562	-404.029126	399.010157	715.771681	-291.516791	108.176699	512.460204	-380.543615	58.476393	559.676975	-333.730546	97.156595	362.252078	-395.956548	326.441277	656.764914	-425.117237	271.921797	594.140996	-399.803301	189.701246	560.729277	-396.725729	290.477319	577.631322	-369.599917	136.460471	287.387991	-333.564238	-158.607322	853.379886	-215.413011	-54.044974	80.341847	-407.816881	-54.116640	80.658233	-10.021780	
1502	7.5100	735.025242	1243.527668	-52.622291	754.998798	1224.474860	-366.894807	776.817279	1293.709989	-215.783741	694.134549	1155.388689	-204.977835	553.481381	1065.031880	54.821828	711.134990	927.790785	-45.023758	575.219342	1073.739245	-505.869933	711.898628	918.308690	-420.503198	194.405627	1260.877625	-262.766881	352.586606	1171.634510	-395.888468	303.720312	1179.910600	-71.477887	351.651223	1113.462698	-358.664652	335.046369	1135.127479	-103.802013	228.292859	1277.134434	-219.592055	234.307402	1278.666680	-280.522044	253.724169	1108.598000	-51.253585	316.299743	1118.786414	-430.594968	300.204361	978.359611	-26.759083	344.561552	899.092797	-25.300464	344.156105	812.035689	-34.656418	379.847467	909.835786	-36.264862	360.009243	705.791876	-45.847114	357.306662	680.538607	-154.357714	330.639618	587.036152	-23.156018	335.355227	501.636672	-42.109957	297.506502	423.487137	-49.190080	360.020788	501.083289	-74.149084	274.645054	346.769959	-56.537681	211.283838	332.905939	-105.635023	470.977954	235.407394	-92.100417	370.252981	247.912229	-26.532266	341.401373	1004.918413	-441.075107	398.105042	939.712371	-429.716279	425.839873	954.416201	-410.806755	416.971098	852.333392	-431.919444	417.092756	736.124233	-405.818373	407.643580	718.354331	-294.306256	113.167446	522.131107	-380.840521	62.944324	569.537525	-333.969397	102.078985	372.068804	-395.951860	334.022485	662.740052	-426.530310	278.387052	601.144404	-400.993883	195.510863	569.449172	-397.461220	296.721991	584.352675	-370.949834	141.381294	297.373558	-333.336258	-158.666920	853.437616	-215.312685	-53.987372	80.333960	-407.766872	-54.009436	80.625575	-9.985821	
1503	7.5150	737.395835	1238.648736	-53.953641	755.288482	1223.912770	-368.560689	777.979587	1291.452553	-217.402482	696.080824	1152.577258	-207.891427	555.094345	1063.006333	55.489039	711.875281	927.050692	-44.743336	575.604442	1073.152328	-507.224274	711.988483	917.961960	-420.894370	195.288087	1258.288759	-259.856185	352.039793	1171.392966	-394.670144	305.584959	1174.527957	-69.739289	351.833993	1112.547663	-358.297224	336.582771	1130.034086	-102.790605	229.458243	1273.993271	-216.674023	234.882598	1276.422822	-277.202564	253.900367	1102.800750	-50.811552	316.781953	1118.427565	-429.616707	296.543054	971.827554	-26.482038	339.443451	891.576631	-24.945253	336.682099	804.422696	-35.689460	374.451704	901.275283	-36.519796	351.712741	699.341652	-47.077528	347.172753	674.685210	-155.863918	323.317743	579.792668	-23.518133	328.992433	494.115931	-41.827265	292.167346	415.736788	-48.852938	353.391732	493.977262	-74.203814	270.736777	338.062994	-56.309332	207.576592	324.926470	-105.398579	466.050609	224.194406	-91.847924	365.505296	237.941601	-26.369404	344.136653	1005.248852	-441.638835	403.173465	942.069539	-430.641085	430.429570	957.597412	-411.528403	424.997984	855.386957	-433.219013	425.818923	741.081571	-407.653099	417.394451	721.879396	-296.516643	118.785332	531.660937	-381.158610	68.052063	579.006167	-334.119797	107.756666	381.597915	-395.869941	341.881428	668.842728	-427.617051	285.232624	608.100838	-402.080848	201.846999	577.893545	-398.166115	303.438025	590.951103	-372.141614	147.098690	307.063774	-333.228661	-158.619488	853.428962	-215.368268	-53.889559	80.299722	-407.693066	-53.853538	80.658776	-10.086491	
1504	7.5200	739.647148	1234.295558	-55.335984	755.431747	1223.437832	-370.239839	778.997442	1289.394047	-218.975162	697.758820	1150.068117	-210.547452	556.997681	1061.205656	56.537495	712.464294	925.905804	-44.286844	576.004717	1072.490386	-508.421743	711.903393	917.667578	-421.053541	196.129776	1255.501107	-256.305869	351.362666	1171.171949	-393.614430	306.613862	1168.855166	-68.556126	352.057988	1111.742854	-358.069370	337.096227	1124.621161	-102.444841	230.476779	1270.636121	-213.267039	235.368095	1273.774286	-273.251921	253.993993	1096.986673	-50.291711	317.099523	1118.260966	-428.601573	293.055263	965.582330	-25.854090	333.533041	884.384985	-24.951182	328.442902	797.489465	-35.398843	368.603407	892.819334	-37.027577	342.498925	693.099809	-47.858026	337.695752	668.620863	-156.688145	315.492846	572.742067	-23.562784	322.385067	487.196576	-41.774786	286.646732	408.099877	-48.559637	346.136264	487.350831	-74.086410	266.494199	329.810382	-56.118239	203.609424	317.715907	-105.214169	460.573538	213.164033	-91.331516	360.226451	228.402445	-26.149800	347.390852	1006.072494	-442.065585	408.594056	944.776453	-431.589629	435.190516	960.995555	-412.925581	432.910754	858.652919	-433.842127	434.662854	746.285284	-409.496653	427.154092	726.019490	-298.488920	124.933102	540.933339	-381.411440	73.660211	588.126550	-334.142797	113.870271	390.857405	-395.857354	349.939600	674.960868	-428.613006	292.393635	614.996200	-403.051405	208.566954	586.048090	-398.690780	310.483466	597.456189	-373.126604	153.473716	316.446132	-333.282131	-158.481902	853.389289	-215.374667	-53.834949	80.291976	-407.648963	-53.678790	80.362495	-10.107908	
1505	7.5250	741.877704	1230.423427	-56.835501	755.515296	1223.166054	-372.029306	779.799360	1287.465293	-220.472924	699.299215	1147.671084	-212.856861	559.245802	1059.826668	57.845081	712.808611	924.627350	-43.775468	576.200348	1071.880197	-509.607027	711.762077	917.638209	-420.997694	196.701126	1252.809315	-252.460922	350.550067	1170.921718	-392.600657	308.872401	1163.046203	-66.961979	352.227298	1111.096416	-357.836777	338.506897	1118.928048	-101.761297	231.527721	1267.211962	-209.796078	235.794078	1271.340290	-269.661690	254.130305	1091.232721	-49.651005	316.996507	1118.411430	-427.695450	290.001280	959.708679	-25.119432	327.994624	877.352206	-25.002097	320.382523	790.719997	-35.436579	363.388874	884.785230	-37.525962	332.564415	686.698641	-48.185462	327.297277	663.338670	-157.798282	307.479771	565.734696	-23.485291	315.576055	480.250135	-41.572268	281.039477	400.674381	-48.197921	339.100530	480.778534	-73.997909	261.979812	321.915946	-55.899491	199.339287	311.032978	-105.031378	454.638480	202.108297	-91.074791	354.396540	219.040319	-25.988870	351.157046	1007.509077	-442.375739	414.019972	948.161445	-433.059457	441.167172	964.956738	-412.855797	440.548848	862.276436	-433.932542	443.476449	751.471673	-411.415142	438.339584	731.656015	-299.717506	131.434647	549.836548	-381.695101	79.667027	596.770368	-334.077573	120.554052	399.682629	-395.784778	358.141078	680.928144	-429.759135	299.754802	621.828826	-403.995790	215.641801	593.834352	-399.183625	317.795197	603.905674	-374.136689	160.412498	325.459455	-333.299254	-158.427524	853.366412	-215.519028	-53.786998	80.175719	-407.686949	-53.652021	80.275104	-10.092527	
1506	7.5300	744.347776	1226.706029	-58.593547	755.496253	1222.921612	-373.933432	780.537305	1285.749795	-221.945371	701.107032	1145.308399	-215.161478	561.868111	1059.029663	59.375529	712.880190	923.376569	-43.419881	576.412768	1071.509859	-511.464901	711.712327	917.747463	-420.807754	197.419599	1249.937624	-248.232891	349.665359	1170.653359	-391.656550	311.394851	1157.101686	-65.373607	352.450307	1110.539593	-357.703824	340.260099	1113.049615	-100.914923	232.483918	1264.281640	-207.938266	236.040359	1268.748691	-265.781590	254.462257	1085.542335	-49.051767	316.600512	1118.936960	-426.795154	286.736766	953.995350	-24.405572	322.361749	870.578749	-24.611806	312.627659	784.194303	-34.936453	357.689468	877.105075	-37.409946	322.009011	679.994217	-48.016341	316.917888	657.230345	-158.334850	299.275096	559.037331	-23.337437	308.607735	473.501204	-41.097578	275.089064	393.493886	-47.807121	332.051736	474.390875	-73.785353	257.169290	314.558206	-55.540204	194.711941	304.997289	-104.706974	448.163717	191.311291	-90.980734	348.170497	210.106445	-25.775879	355.034193	1009.528750	-442.955890	419.346132	951.547758	-433.652014	446.324089	969.137842	-413.854232	447.857109	866.242655	-434.024043	452.027988	756.525644	-413.185174	447.823337	737.098747	-301.225109	138.287145	558.324932	-382.076678	86.003290	605.133993	-334.200142	127.722190	408.295583	-395.821833	366.451222	686.651987	-431.091458	307.515802	628.295447	-404.912432	223.015819	601.299439	-399.626605	325.435211	610.216339	-374.972329	167.857728	334.094679	-333.251775	-158.345529	853.326839	-215.439113	-53.763550	80.177023	-407.648271	-53.659700	80.208674	-10.083113	
